<svg xmlns="http://www.w3.org/2000/svg" xmlns:xlink="http://www.w3.org/1999/xlink" width="175" zoomAndPan="magnify" viewBox="0 0 375 374.999991" height="150" preserveAspectRatio="xMidYMid meet" version="1.0"><defs><g/><clipPath id="id1"><path d="M 185.25 113 L 189.75 113 L 189.75 262 L 185.25 262 Z M 185.25 113 " clip-rule="nonzero"/></clipPath></defs><g clip-path="url(#id1)"><path fill="#000000" d="M 187.464844 113.105469 C 187.167969 113.113281 186.882812 113.171875 186.609375 113.292969 C 186.332031 113.410156 186.09375 113.574219 185.886719 113.789062 C 185.679688 114.003906 185.519531 114.25 185.410156 114.523438 C 185.300781 114.800781 185.246094 115.089844 185.25 115.386719 L 185.25 146.886719 C 185.246094 147.1875 185.300781 147.480469 185.410156 147.757812 C 185.523438 148.039062 185.6875 148.285156 185.898438 148.5 C 186.109375 148.714844 186.355469 148.878906 186.632812 148.996094 C 186.910156 149.109375 187.199219 149.167969 187.5 149.167969 C 187.800781 149.167969 188.089844 149.109375 188.367188 148.996094 C 188.644531 148.878906 188.890625 148.714844 189.101562 148.5 C 189.3125 148.285156 189.476562 148.039062 189.589844 147.757812 C 189.699219 147.480469 189.753906 147.1875 189.75 146.886719 L 189.75 115.386719 C 189.753906 115.082031 189.699219 114.789062 189.585938 114.507812 C 189.46875 114.226562 189.304688 113.980469 189.089844 113.765625 C 188.875 113.550781 188.625 113.382812 188.34375 113.269531 C 188.0625 113.15625 187.769531 113.101562 187.464844 113.105469 Z M 187.5 153.636719 C 186.261719 153.636719 185.25 154.648438 185.25 155.886719 C 185.25 157.125 186.261719 158.136719 187.5 158.136719 C 188.738281 158.136719 189.75 157.125 189.75 155.886719 C 189.75 154.648438 188.738281 153.636719 187.5 153.636719 Z M 187.5 162.636719 C 186.261719 162.636719 185.25 163.648438 185.25 164.886719 C 185.25 166.125 186.261719 167.136719 187.5 167.136719 C 188.738281 167.136719 189.75 166.125 189.75 164.886719 C 189.75 163.648438 188.738281 162.636719 187.5 162.636719 Z M 187.5 171.636719 C 186.261719 171.636719 185.25 172.648438 185.25 173.886719 C 185.25 175.125 186.261719 176.136719 187.5 176.136719 C 188.738281 176.136719 189.75 175.125 189.75 173.886719 C 189.75 172.648438 188.738281 171.636719 187.5 171.636719 Z M 187.5 180.636719 C 186.261719 180.636719 185.25 181.648438 185.25 182.886719 C 185.25 184.125 186.261719 185.136719 187.5 185.136719 C 188.738281 185.136719 189.75 184.125 189.75 182.886719 C 189.75 181.648438 188.738281 180.636719 187.5 180.636719 Z M 187.5 189.636719 C 186.261719 189.636719 185.25 190.648438 185.25 191.886719 C 185.25 193.125 186.261719 194.136719 187.5 194.136719 C 188.738281 194.136719 189.75 193.125 189.75 191.886719 C 189.75 190.648438 188.738281 189.636719 187.5 189.636719 Z M 187.5 198.636719 C 186.261719 198.636719 185.25 199.648438 185.25 200.886719 C 185.25 202.125 186.261719 203.136719 187.5 203.136719 C 188.738281 203.136719 189.75 202.125 189.75 200.886719 C 189.75 199.648438 188.738281 198.636719 187.5 198.636719 Z M 187.5 207.636719 C 186.261719 207.636719 185.25 208.648438 185.25 209.886719 C 185.25 211.125 186.261719 212.136719 187.5 212.136719 C 188.738281 212.136719 189.75 211.125 189.75 209.886719 C 189.75 208.648438 188.738281 207.636719 187.5 207.636719 Z M 187.5 216.636719 C 186.261719 216.636719 185.25 217.648438 185.25 218.886719 C 185.25 220.125 186.261719 221.136719 187.5 221.136719 C 188.738281 221.136719 189.75 220.125 189.75 218.886719 C 189.75 217.648438 188.738281 216.636719 187.5 216.636719 Z M 187.464844 223.355469 C 187.167969 223.363281 186.882812 223.421875 186.609375 223.542969 C 186.332031 223.660156 186.09375 223.824219 185.886719 224.039062 C 185.679688 224.253906 185.519531 224.5 185.410156 224.773438 C 185.300781 225.050781 185.246094 225.339844 185.25 225.636719 L 185.25 259.386719 C 185.246094 259.6875 185.300781 259.980469 185.410156 260.257812 C 185.523438 260.539062 185.6875 260.785156 185.898438 261 C 186.109375 261.214844 186.355469 261.378906 186.632812 261.496094 C 186.910156 261.609375 187.199219 261.667969 187.5 261.667969 C 187.800781 261.667969 188.089844 261.609375 188.367188 261.496094 C 188.644531 261.378906 188.890625 261.214844 189.101562 261 C 189.3125 260.785156 189.476562 260.539062 189.589844 260.257812 C 189.699219 259.980469 189.753906 259.6875 189.75 259.386719 L 189.75 225.636719 C 189.753906 225.332031 189.699219 225.039062 189.585938 224.757812 C 189.46875 224.476562 189.304688 224.230469 189.089844 224.015625 C 188.875 223.800781 188.625 223.632812 188.34375 223.519531 C 188.0625 223.40625 187.769531 223.351562 187.464844 223.355469 Z M 187.464844 223.355469 " fill-opacity="1" fill-rule="nonzero"/></g><g fill="#000000" fill-opacity="1"><g transform="translate(87.317219, 224.937232)"><g><path d="M 51.59375 -65.890625 L 76.71875 -65.890625 L 76.71875 -64.109375 L 71.546875 -64.109375 L 71.546875 -1.78125 L 76.71875 -1.78125 L 76.71875 0 L 48.015625 0 L 48.015625 -1.78125 L 53.1875 -1.78125 L 53.1875 -60.625 L 52.8125 -60.625 L 38.6875 0 L 26.921875 0 L 10.359375 -60.90625 L 9.984375 -60.90625 L 9.984375 -1.78125 L 15.15625 -1.78125 L 15.15625 0 L 2.359375 0 L 2.359375 -1.78125 L 7.53125 -1.78125 L 7.53125 -64.109375 L 2.359375 -64.109375 L 2.359375 -65.890625 L 27.765625 -65.890625 L 40.296875 -17.421875 Z M 51.59375 -65.890625 "/></g></g></g><g fill="#000000" fill-opacity="1"><g transform="translate(208.446435, 228.381914)"><g><path d="M 61.828125 -68.046875 L 62.796875 -43.640625 L 60.953125 -43.640625 C 58.097656 -52.265625 55.566406 -58.144531 53.359375 -61.28125 C 51.160156 -64.425781 47.988281 -66 43.84375 -66 L 42.671875 -66 L 42.671875 -2.046875 L 50.9375 -2.046875 L 50.9375 0 L 15.453125 0 L 15.453125 -2.046875 L 23.71875 -2.046875 L 23.71875 -66 L 22.453125 -66 C 18.304688 -66 15.097656 -64.363281 12.828125 -61.09375 C 10.554688 -57.820312 8.0625 -52.003906 5.34375 -43.640625 L 3.5 -43.640625 L 4.46875 -68.046875 Z M 61.828125 -68.046875 "/></g></g></g></svg>
